# xmcd
#
# Track frame offsets: 
#        150
#        13553
#        24214
#        46133
#        58424
#        71915
#        85435
#        97993
#        110983
#        122520
#        134237
#        151730
#        162717
#        173705
#        183867
#        193992
#        204530
#        215297
#        227372
#        236930
#        248480
#        258717
#        271728
#
# Disc length: 3767 seconds
#
# Revision: 2
# Processed by: cddbd v1.5.2PL0 Copyright (c) Steve Scherf et al.
# Submitted via: ExactAudioCopyFreeDBPlugin 1.0
#
DISCID=4c0eb517
DTITLE=King Curtis - King Curtis:  Seven Classic Albums
DYEAR=2012
DGENRE=Rhythm and Blues
TTITLE0=Night Train
TTITLE1=You Came a Long Way from St. Louis
TTITLE2=Honky Tonk
TTITLE3=Fever
TTITLE4=Tuxedo Junction
TTITLE5=Lean Baby
TTITLE6=The Hucklebuck
TTITLE7=Soft
TTITLE8=Tippin' In
TTITLE9=So Rare
TTITLE10=Harlem Nocturne
TTITLE11=Jersey Bounce
TTITLE12=Twistin' Time
TTITLE13=Honeysuckle Rose
TTITLE14=Peppermint Twist
TTITLE15=The Hucklebuck
TTITLE16=The Arthur Murray Twist
TTITLE17=Stompin' at the Savoy
TTITLE18=The Twist
TTITLE19=12the Street Twist
TTITLE20=Let´s Twist Again
TTITLE21=All Right, Okay You Win
TTITLE22=The Fly
EXTD=
EXTT0=
EXTT1=
EXTT2=
EXTT3=
EXTT4=
EXTT5=
EXTT6=
EXTT7=
EXTT8=
EXTT9=
EXTT10=
EXTT11=
EXTT12=
EXTT13=
EXTT14=
EXTT15=
EXTT16=
EXTT17=
EXTT18=
EXTT19=
EXTT20=
EXTT21=
EXTT22=
PLAYORDER=
